<svg aria-hidden="true" style="position: absolute; width: 0; height: 0; overflow: hidden;" version="1.1" xmlns="http://www.w3.org/2000/svg" xmlns:xlink="http://www.w3.org/1999/xlink">
<defs>
<symbol id="icon-add-outline" viewBox="0 0 20 20">
<title>add-outline</title>
<path d="M11 9h4v2h-4v4h-2v-4h-4v-2h4v-4h2v4zM10 20c-5.523 0-10-4.477-10-10s4.477-10 10-10v0c5.523 0 10 4.477 10 10s-4.477 10-10 10v0zM10 18c4.418 0 8-3.582 8-8s-3.582-8-8-8v0c-4.418 0-8 3.582-8 8s3.582 8 8 8v0z"></path>
</symbol>
<symbol id="icon-warning" viewBox="0 0 20 20">
<title>warning</title>
<path d="M19.511 17.98l-8.907-16.632c-0.124-0.215-0.354-0.348-0.604-0.348s-0.481 0.133-0.604 0.348l-8.906 16.632c-0.121 0.211-0.119 0.471 0.005 0.68 0.125 0.211 0.352 0.34 0.598 0.34h17.814c0.245 0 0.474-0.129 0.598-0.34 0.124-0.209 0.126-0.469 0.006-0.68zM11 17h-2v-2h2v2zM11 13.5h-2v-6.5h2v6.5z"></path>
</symbol>
<symbol id="icon-bookmark" viewBox="0 0 20 20">
<title>bookmark</title>
<path d="M14 2v17l-4-4-4 4v-17c0-0.553 0.585-1.020 1-1h6c0.689-0.020 1 0.447 1 1z"></path>
</symbol>
<symbol id="icon-chevron-thin-down" viewBox="0 0 20 20">
<title>chevron-thin-down</title>
<path d="M17.418 6.109c0.272-0.268 0.709-0.268 0.979 0s0.271 0.701 0 0.969l-7.908 7.83c-0.27 0.268-0.707 0.268-0.979 0l-7.908-7.83c-0.27-0.268-0.27-0.701 0-0.969s0.709-0.268 0.979 0l7.419 7.141 7.418-7.141z"></path>
</symbol>
<symbol id="icon-pencil" viewBox="0 0 20 20">
<title>pencil</title>
<path d="M14.69 2.661c-1.894-1.379-3.242-1.349-3.754-1.266-0.144 0.023-0.265 0.106-0.35 0.223l-6.883 9.497c-0.277 0.382-0.437 0.836-0.462 1.307l-0.296 5.624c-0.021 0.405 0.382 0.698 0.76 0.553l5.256-2.010c0.443-0.17 0.828-0.465 1.106-0.849l6.88-9.494c0.089-0.123 0.125-0.273 0.1-0.423-0.084-0.526-0.487-1.802-2.357-3.162zM8.977 15.465l-2.043 0.789c-0.080 0.031-0.169 0.006-0.221-0.062-0.263-0.335-0.576-0.667-1.075-1.030-0.499-0.362-0.911-0.558-1.31-0.706-0.080-0.030-0.131-0.106-0.126-0.192l0.122-2.186 0.549-0.755c0 0 1.229-0.169 2.833 0.998 1.602 1.166 1.821 2.388 1.821 2.388l-0.55 0.756z"></path>
</symbol>
<symbol id="icon-fire-extinguisher" viewBox="0 0 22 28">
<title>fire-extinguisher</title>
<path d="M8 3c0-0.547-0.453-1-1-1s-1 0.453-1 1 0.453 1 1 1 1-0.453 1-1zM22 2.5v5c0 0.156-0.063 0.297-0.187 0.391-0.094 0.078-0.203 0.109-0.313 0.109-0.031 0-0.063 0-0.109-0.016l-7-1.5c-0.219-0.047-0.391-0.25-0.391-0.484h-4v1.594c2.281 0.469 4 2.484 4 4.906v12.5c0 0.547-0.453 1-1 1h-8c-0.547 0-1-0.453-1-1v-12.5c0-2.234 1.469-4.141 3.5-4.766v-1.734h-0.5c-3.313 0-5.094 3.422-5.109 3.453-0.172 0.344-0.531 0.547-0.891 0.547-0.156 0-0.313-0.031-0.453-0.109-0.484-0.25-0.688-0.844-0.438-1.344 0.078-0.156 1.641-3.187 4.781-4.203-0.234-0.391-0.391-0.844-0.391-1.344 0-1.375 1.125-2.5 2.5-2.5s2.5 1.125 2.5 2.5c0 0.359-0.078 0.688-0.219 1h4.719c0-0.234 0.172-0.438 0.391-0.484l7-1.5c0.047-0.016 0.078-0.016 0.109-0.016 0.109 0 0.219 0.031 0.313 0.109 0.125 0.094 0.187 0.234 0.187 0.391z"></path>
</symbol>
<symbol id="icon-bomb" viewBox="0 0 28 28">
<title>bomb</title>
<path d="M8.922 9.203c-0.203-0.516-0.781-0.75-1.297-0.547-2.25 0.906-4.062 2.719-4.969 4.969-0.203 0.516 0.031 1.094 0.547 1.297 0.125 0.047 0.25 0.078 0.375 0.078 0.406 0 0.766-0.234 0.938-0.625 0.703-1.75 2.109-3.156 3.859-3.859 0.516-0.219 0.766-0.797 0.547-1.313zM23.641 3.641l0.719 0.719-3.813 3.797 1.062 1.062c0.391 0.391 0.391 1.031 0 1.422l-1 1c0.875 1.578 1.391 3.406 1.391 5.359 0 6.078-4.922 11-11 11s-11-4.922-11-11 4.922-11 11-11c1.953 0 3.781 0.516 5.359 1.391l1-1c0.391-0.391 1.031-0.391 1.422 0l1.062 1.062zM23.766 2.766c-0.094 0.094-0.219 0.156-0.344 0.156-0.141 0-0.266-0.063-0.359-0.156l-1.422-1.406c-0.187-0.203-0.187-0.516 0-0.719 0.203-0.187 0.516-0.187 0.719 0l1.406 1.422c0.203 0.187 0.203 0.516 0 0.703zM27.359 6.359c-0.109 0.094-0.234 0.141-0.359 0.141s-0.25-0.047-0.359-0.141l-1.406-1.422c-0.203-0.187-0.203-0.516 0-0.703 0.187-0.203 0.516-0.203 0.703 0l1.422 1.406c0.187 0.203 0.187 0.516 0 0.719zM28 3.5c0 0.281-0.219 0.5-0.5 0.5h-1.5c-0.281 0-0.5-0.219-0.5-0.5s0.219-0.5 0.5-0.5h1.5c0.281 0 0.5 0.219 0.5 0.5zM25 0.5v1.5c0 0.281-0.219 0.5-0.5 0.5s-0.5-0.219-0.5-0.5v-1.5c0-0.281 0.219-0.5 0.5-0.5s0.5 0.219 0.5 0.5zM27.359 1.359l-1.422 1.406c-0.094 0.094-0.219 0.156-0.344 0.156-0.141 0-0.266-0.063-0.359-0.156-0.203-0.187-0.203-0.516 0-0.703l1.406-1.422c0.203-0.187 0.516-0.187 0.719 0 0.187 0.203 0.187 0.516 0 0.719z"></path>
</symbol>
<symbol id="icon-calendar" viewBox="0 0 26 28">
<title>calendar</title>
<path d="M2 26h4.5v-4.5h-4.5v4.5zM7.5 26h5v-4.5h-5v4.5zM2 20.5h4.5v-5h-4.5v5zM7.5 20.5h5v-5h-5v5zM2 14.5h4.5v-4.5h-4.5v4.5zM13.5 26h5v-4.5h-5v4.5zM7.5 14.5h5v-4.5h-5v4.5zM19.5 26h4.5v-4.5h-4.5v4.5zM13.5 20.5h5v-5h-5v5zM8 7v-4.5c0-0.266-0.234-0.5-0.5-0.5h-1c-0.266 0-0.5 0.234-0.5 0.5v4.5c0 0.266 0.234 0.5 0.5 0.5h1c0.266 0 0.5-0.234 0.5-0.5zM19.5 20.5h4.5v-5h-4.5v5zM13.5 14.5h5v-4.5h-5v4.5zM19.5 14.5h4.5v-4.5h-4.5v4.5zM20 7v-4.5c0-0.266-0.234-0.5-0.5-0.5h-1c-0.266 0-0.5 0.234-0.5 0.5v4.5c0 0.266 0.234 0.5 0.5 0.5h1c0.266 0 0.5-0.234 0.5-0.5zM26 6v20c0 1.094-0.906 2-2 2h-22c-1.094 0-2-0.906-2-2v-20c0-1.094 0.906-2 2-2h2v-1.5c0-1.375 1.125-2.5 2.5-2.5h1c1.375 0 2.5 1.125 2.5 2.5v1.5h6v-1.5c0-1.375 1.125-2.5 2.5-2.5h1c1.375 0 2.5 1.125 2.5 2.5v1.5h2c1.094 0 2 0.906 2 2z"></path>
</symbol>
<symbol id="icon-hand-pointer-o" viewBox="0 0 26 28">
<title>hand-pointer-o</title>
<path d="M10 2c-1.109 0-2 0.891-2 2v14l-2.359-3.156c-0.391-0.516-1.016-0.844-1.672-0.844-1.094 0-1.969 0.922-1.969 2 0 0.438 0.141 0.859 0.406 1.203l6 8c0.375 0.5 0.969 0.797 1.594 0.797h11.219c0.453 0 0.859-0.313 0.969-0.75l1.437-5.75c0.25-1 0.375-2.016 0.375-3.031v-3.391c0-0.828-0.641-1.578-1.5-1.578-0.828 0-1.5 0.672-1.5 1.5h-0.5v-0.953c0-0.984-0.75-1.797-1.75-1.797-0.969 0-1.75 0.781-1.75 1.75v1h-0.5v-1.406c0-1.125-0.859-2.094-2-2.094-1.109 0-2 0.891-2 2v1.5h-0.5v-8.906c0-1.125-0.859-2.094-2-2.094zM10 0c2.234 0 4 1.875 4 4.094v3.437c0.172-0.016 0.328-0.031 0.5-0.031 1.016 0 1.969 0.391 2.703 1.078 0.484-0.219 1.016-0.328 1.547-0.328 1.125 0 2.172 0.5 2.875 1.359 0.297-0.078 0.578-0.109 0.875-0.109 1.969 0 3.5 1.641 3.5 3.578v3.391c0 1.172-0.141 2.359-0.438 3.516l-1.437 5.75c-0.328 1.328-1.531 2.266-2.906 2.266h-11.219c-1.25 0-2.453-0.609-3.203-1.594l-6-8c-0.516-0.688-0.797-1.547-0.797-2.406 0-2.188 1.781-4 3.969-4 0.719 0 1.422 0.187 2.031 0.547v-8.547c0-2.203 1.797-4 4-4zM12 22v-6h-0.5v6h0.5zM16 22v-6h-0.5v6h0.5zM20 22v-6h-0.5v6h0.5z"></path>
</symbol>
<symbol id="icon-menu" viewBox="0 0 24 24">
<title>menu</title>
<path d="M3 13h18c0.552 0 1-0.448 1-1s-0.448-1-1-1h-18c-0.552 0-1 0.448-1 1s0.448 1 1 1zM3 7h18c0.552 0 1-0.448 1-1s-0.448-1-1-1h-18c-0.552 0-1 0.448-1 1s0.448 1 1 1zM3 19h18c0.552 0 1-0.448 1-1s-0.448-1-1-1h-18c-0.552 0-1 0.448-1 1s0.448 1 1 1z"></path>
</symbol>
<symbol id="icon-price-tag" viewBox="0 0 32 32">
<title>price-tag</title>
<path d="M30.5 0h-12c-0.825 0-1.977 0.477-2.561 1.061l-14.879 14.879c-0.583 0.583-0.583 1.538 0 2.121l12.879 12.879c0.583 0.583 1.538 0.583 2.121 0l14.879-14.879c0.583-0.583 1.061-1.736 1.061-2.561v-12c0-0.825-0.675-1.5-1.5-1.5zM23 12c-1.657 0-3-1.343-3-3s1.343-3 3-3 3 1.343 3 3-1.343 3-3 3z"></path>
</symbol>
<symbol id="icon-drawer" viewBox="0 0 32 32">
<title>drawer</title>
<path d="M31.781 20.375l-8-10c-0.19-0.237-0.477-0.375-0.781-0.375h-14c-0.304 0-0.591 0.138-0.781 0.375l-8 10c-0.142 0.177-0.219 0.398-0.219 0.625v9c0 1.105 0.895 2 2 2h28c1.105 0 2-0.895 2-2v-9c0-0.227-0.077-0.447-0.219-0.625zM30 22h-7l-4 4h-6l-4-4h-7v-0.649l7.481-9.351h13.039l7.481 9.351v0.649z"></path>
<path d="M23 16h-14c-0.552 0-1-0.448-1-1s0.448-1 1-1h14c0.552 0 1 0.448 1 1s-0.448 1-1 1z"></path>
<path d="M25 20h-18c-0.552 0-1-0.448-1-1s0.448-1 1-1h18c0.552 0 1 0.448 1 1s-0.448 1-1 1z"></path>
</symbol>
<symbol id="icon-user-tie" viewBox="0 0 32 32">
<title>user-tie</title>
<path d="M10 6c0-3.314 2.686-6 6-6s6 2.686 6 6c0 3.314-2.686 6-6 6s-6-2.686-6-6zM24.002 14h-1.107l-6.222 12.633 2.327-11.633-3-3-3 3 2.327 11.633-6.222-12.633h-1.107c-3.998 0-3.998 2.687-3.998 6v10h24v-10c0-3.313 0-6-3.998-6z"></path>
</symbol>
<symbol id="icon-stats-dots" viewBox="0 0 32 32">
<title>stats-dots</title>
<path d="M4 28h28v4h-32v-32h4zM9 26c-1.657 0-3-1.343-3-3s1.343-3 3-3c0.088 0 0.176 0.005 0.262 0.012l3.225-5.375c-0.307-0.471-0.487-1.033-0.487-1.638 0-1.657 1.343-3 3-3s3 1.343 3 3c0 0.604-0.179 1.167-0.487 1.638l3.225 5.375c0.086-0.007 0.174-0.012 0.262-0.012 0.067 0 0.133 0.003 0.198 0.007l5.324-9.316c-0.329-0.482-0.522-1.064-0.522-1.691 0-1.657 1.343-3 3-3s3 1.343 3 3c0 1.657-1.343 3-3 3-0.067 0-0.133-0.003-0.198-0.007l-5.324 9.316c0.329 0.481 0.522 1.064 0.522 1.691 0 1.657-1.343 3-3 3s-3-1.343-3-3c0-0.604 0.179-1.167 0.487-1.638l-3.225-5.375c-0.086 0.007-0.174 0.012-0.262 0.012s-0.176-0.005-0.262-0.012l-3.225 5.375c0.307 0.471 0.487 1.033 0.487 1.637 0 1.657-1.343 3-3 3z"></path>
</symbol>
<symbol id="icon-meter" viewBox="0 0 32 32">
<title>meter</title>
<path d="M16 2c8.837 0 16 7.163 16 16 0 6.025-3.331 11.271-8.25 14h-15.499c-4.92-2.729-8.25-7.975-8.25-14 0-8.837 7.163-16 16-16zM25.060 27.060c2.42-2.42 3.753-5.637 3.753-9.060h-2.813v-2h2.657c-0.219-1.406-0.668-2.755-1.33-4h-3.327v-2h2.009c-0.295-0.368-0.611-0.722-0.949-1.060-1.444-1.444-3.173-2.501-5.060-3.119v2.178h-2v-2.658c-0.656-0.102-1.324-0.155-2-0.155s-1.344 0.053-2 0.155v2.658h-2v-2.178c-1.887 0.617-3.615 1.674-5.060 3.119-0.338 0.338-0.654 0.692-0.949 1.060h2.009v2h-3.327c-0.662 1.245-1.111 2.594-1.33 4h2.657v2h-2.813c0 3.422 1.333 6.64 3.753 9.060 0.335 0.335 0.685 0.648 1.049 0.94h6.011l1.143-16h1.714l1.143 16h6.011c0.364-0.292 0.714-0.606 1.049-0.94z"></path>
</symbol>
<symbol id="icon-bookmark1" viewBox="0 0 32 32">
<title>bookmark1</title>
<path d="M6 0v32l10-10 10 10v-32z"></path>
</symbol>
<symbol id="icon-warning1" viewBox="0 0 32 32">
<title>warning1</title>
<path d="M16 2.899l13.409 26.726h-26.819l13.409-26.726zM16 0c-0.69 0-1.379 0.465-1.903 1.395l-13.659 27.222c-1.046 1.86-0.156 3.383 1.978 3.383h27.166c2.134 0 3.025-1.522 1.978-3.383h0l-13.659-27.222c-0.523-0.93-1.213-1.395-1.903-1.395v0z"></path>
<path d="M18 26c0 1.105-0.895 2-2 2s-2-0.895-2-2c0-1.105 0.895-2 2-2s2 0.895 2 2z"></path>
<path d="M16 22c-1.105 0-2-0.895-2-2v-6c0-1.105 0.895-2 2-2s2 0.895 2 2v6c0 1.105-0.895 2-2 2z"></path>
</symbol>
</defs>
</svg>
